# xmcd
#
# Track frame offsets:
#	150
#	17435
#	35144
#	53455
#	69494
#	87452
#	103304
#	118980
#	141139
#	155344
#	174298
#	192821
#	211034
#	232943
#	250798
#	266218
#	284924
#	300692
#	317412
#	338561
#
# Disc length: 4762
#
# Revision: 6
# Processed by: cddbd v1.5.1PL0 Copyright (c) Steve Scherf et al.
# Submitted via: CDex 1.50Beta7
# Normalized: r5:TDELIM( - )
#
DISCID=19129814
DTITLE=Carol 2002 - by Little Spot
DYEAR=2002
DGENRE=Country
TTITLE0=Dallas Company - Clima de Rodeio
TTITLE1=Vanessa Carlton - 1000 Miles
TTITLE2=Avril Lavigne - Complicated
TTITLE3=Aerosmith - Jaded
TTITLE4=Blink 182 - Stay Together For The Kids
TTITLE5=Box Car Racer - I Feel So
TTITLE6=Linkin Park - Crawling
TTITLE7=Creed - My Sacrifice
TTITLE8=Chad Kroeger - (Feat. Josey Scott) - Hero
TTITLE9=Five - Until The Time Is Through
TTITLE10=LS Jack - Carla
TTITLE11=Silverchair - The Greatest View
TTITLE12=Goo Goo Dolls - Iris
TTITLE13=Creed - One Last Breath
TTITLE14=The Calling - Wherever You Will Go
TTITLE15=Ricky Martin - (Feat. Christina Aguilera) - Nobody Wants To Be Lonely
TTITLE16=Pink - Don't Let Me Get Me
TTITLE17=Lara Fabian - Meu Grande Amor
TTITLE18=Djavan - Se... [live]
TTITLE19=Shania Twain - (& Backstreet Boys) - From This Moment On [live]
EXTD=YEAR: 2002
EXTT0=
EXTT1=
EXTT2=
EXTT3=
EXTT4=
EXTT5=
EXTT6=
EXTT7=
EXTT8=
EXTT9=
EXTT10=
EXTT11=
EXTT12=
EXTT13=
EXTT14=
EXTT15=
EXTT16=
EXTT17=
EXTT18=
EXTT19=
PLAYORDER=
